# xmcd
#
# Track frame offsets: 
#        150
#        19078
#        34890
#        50406
#        61546
#        77338
#        82138
#        92990
#        106950
#        122774
#        132674
#        138990
#        152842
#        168882
#        184978
#        200770
#        216826
#        228482
#        240082
#        255062
#        268826
#        285962
#        303206
#
# Disc length: 4438 seconds
#
# Revision: 0
# Processed by: cddbd v1.5.2PL0 Copyright (c) Steve Scherf et al.
# Submitted via: ExactAudioCopy v0.99pb5
#
DISCID=34115417
DTITLE=Highlands Country - Best Of 2010
DYEAR=2010
DGENRE=Country
TTITLE0=Boondocks
TTITLE1=I'm From The Country
TTITLE2=He Ain't Never Done Me Nothing But Good
TTITLE3=Brethren We Have Met To Worship
TTITLE4=Amazing Grace
TTITLE5=Washed Or Worshed
TTITLE6=Are You Washed In The Blood Of The Lamb?
TTITLE7=I Stand Amazed
TTITLE8=Just A Closer Walk With Thee
TTITLE9=I'll Fly Away
TTITLE10=Band Introductions
TTITLE11=Great Is Thy Reward
TTITLE12=A Way Through
TTITLE13=Get Up In Jesus' Name
TTITLE14=Can't Take Him Out Of Me
TTITLE15=I'm Crazy
TTITLE16=Of All The Things About You
TTITLE17=You Are The One I Love
TTITLE18=God's Been Good To Me
TTITLE19=If It Had Not Been The Lord
TTITLE20=Beautiful One
TTITLE21=What Could Be Better?
TTITLE22=Victory In Jesus
EXTD=
EXTT0=
EXTT1=
EXTT2=
EXTT3=
EXTT4=
EXTT5=
EXTT6=
EXTT7=
EXTT8=
EXTT9=
EXTT10=
EXTT11=
EXTT12=
EXTT13=
EXTT14=
EXTT15=
EXTT16=
EXTT17=
EXTT18=
EXTT19=
EXTT20=
EXTT21=
EXTT22=
PLAYORDER=
